<mxfile host="Electron" modified="2025-01-27T08:04:32.576Z" agent="Mozilla/5.0 (Macintosh; Intel Mac OS X 10_15_7) AppleWebKit/537.36 (KHTML, like Gecko) draw.io/21.6.5 Chrome/114.0.5735.243 Electron/25.3.1 Safari/537.36" etag="BXKF-4RlE7HKztyUA7X8" version="21.6.5" type="device">
  <diagram name="第 1 页" id="QVe_zM4RatlHCTb4sLCF">
    <mxGraphModel dx="904" dy="489" grid="1" gridSize="10" guides="1" tooltips="1" connect="1" arrows="1" fold="1" page="1" pageScale="1" pageWidth="827" pageHeight="1169" math="0" shadow="0">
      <root>
        <mxCell id="0" />
        <mxCell id="1" parent="0" />
        <mxCell id="LedfWho_zEuQjJXu2kJp-13" style="edgeStyle=orthogonalEdgeStyle;rounded=0;orthogonalLoop=1;jettySize=auto;html=1;entryX=0.5;entryY=0;entryDx=0;entryDy=0;" parent="1" source="LedfWho_zEuQjJXu2kJp-1" target="LedfWho_zEuQjJXu2kJp-12" edge="1">
          <mxGeometry relative="1" as="geometry" />
        </mxCell>
        <mxCell id="LedfWho_zEuQjJXu2kJp-1" value="開始" style="rounded=1;whiteSpace=wrap;html=1;" parent="1" vertex="1">
          <mxGeometry x="360" width="80" height="40" as="geometry" />
        </mxCell>
        <mxCell id="LedfWho_zEuQjJXu2kJp-8" style="edgeStyle=orthogonalEdgeStyle;rounded=0;orthogonalLoop=1;jettySize=auto;html=1;entryX=0.5;entryY=0;entryDx=0;entryDy=0;" parent="1" source="LedfWho_zEuQjJXu2kJp-2" target="LedfWho_zEuQjJXu2kJp-6" edge="1">
          <mxGeometry relative="1" as="geometry" />
        </mxCell>
        <mxCell id="LedfWho_zEuQjJXu2kJp-28" value="失敗" style="edgeLabel;html=1;align=center;verticalAlign=middle;resizable=0;points=[];" parent="LedfWho_zEuQjJXu2kJp-8" vertex="1" connectable="0">
          <mxGeometry x="-0.2357" y="1" relative="1" as="geometry">
            <mxPoint x="-1" as="offset" />
          </mxGeometry>
        </mxCell>
        <mxCell id="LedfWho_zEuQjJXu2kJp-33" style="edgeStyle=orthogonalEdgeStyle;rounded=0;orthogonalLoop=1;jettySize=auto;html=1;" parent="1" source="LedfWho_zEuQjJXu2kJp-2" target="LedfWho_zEuQjJXu2kJp-29" edge="1">
          <mxGeometry relative="1" as="geometry" />
        </mxCell>
        <mxCell id="LedfWho_zEuQjJXu2kJp-34" value="成功" style="edgeLabel;html=1;align=center;verticalAlign=middle;resizable=0;points=[];" parent="LedfWho_zEuQjJXu2kJp-33" vertex="1" connectable="0">
          <mxGeometry x="-0.8522" relative="1" as="geometry">
            <mxPoint as="offset" />
          </mxGeometry>
        </mxCell>
        <mxCell id="LedfWho_zEuQjJXu2kJp-2" value="快取命中" style="rhombus;whiteSpace=wrap;html=1;" parent="1" vertex="1">
          <mxGeometry x="360" y="160" width="80" height="40" as="geometry" />
        </mxCell>
        <mxCell id="LedfWho_zEuQjJXu2kJp-16" style="edgeStyle=orthogonalEdgeStyle;rounded=0;orthogonalLoop=1;jettySize=auto;html=1;entryX=0.5;entryY=0;entryDx=0;entryDy=0;" parent="1" source="LedfWho_zEuQjJXu2kJp-6" target="LedfWho_zEuQjJXu2kJp-15" edge="1">
          <mxGeometry relative="1" as="geometry" />
        </mxCell>
        <mxCell id="LedfWho_zEuQjJXu2kJp-6" value="RAG" style="shape=process;whiteSpace=wrap;html=1;backgroundOutline=1;" parent="1" vertex="1">
          <mxGeometry x="360" y="240" width="80" height="40" as="geometry" />
        </mxCell>
        <mxCell id="LedfWho_zEuQjJXu2kJp-14" style="edgeStyle=orthogonalEdgeStyle;rounded=0;orthogonalLoop=1;jettySize=auto;html=1;entryX=0.5;entryY=0;entryDx=0;entryDy=0;" parent="1" source="LedfWho_zEuQjJXu2kJp-12" target="LedfWho_zEuQjJXu2kJp-2" edge="1">
          <mxGeometry relative="1" as="geometry" />
        </mxCell>
        <mxCell id="LedfWho_zEuQjJXu2kJp-12" value="提問" style="shape=parallelogram;perimeter=parallelogramPerimeter;whiteSpace=wrap;html=1;fixedSize=1;" parent="1" vertex="1">
          <mxGeometry x="360" y="80" width="80" height="40" as="geometry" />
        </mxCell>
        <mxCell id="LedfWho_zEuQjJXu2kJp-18" style="edgeStyle=orthogonalEdgeStyle;rounded=0;orthogonalLoop=1;jettySize=auto;html=1;entryX=0.5;entryY=0;entryDx=0;entryDy=0;" parent="1" source="LedfWho_zEuQjJXu2kJp-15" target="LedfWho_zEuQjJXu2kJp-17" edge="1">
          <mxGeometry relative="1" as="geometry" />
        </mxCell>
        <mxCell id="LedfWho_zEuQjJXu2kJp-15" value="回覆" style="shape=parallelogram;perimeter=parallelogramPerimeter;whiteSpace=wrap;html=1;fixedSize=1;" parent="1" vertex="1">
          <mxGeometry x="360" y="400" width="80" height="40" as="geometry" />
        </mxCell>
        <mxCell id="LedfWho_zEuQjJXu2kJp-17" value="結束" style="ellipse;whiteSpace=wrap;html=1;aspect=fixed;" parent="1" vertex="1">
          <mxGeometry x="380" y="480" width="40" height="40" as="geometry" />
        </mxCell>
        <mxCell id="LedfWho_zEuQjJXu2kJp-36" style="edgeStyle=orthogonalEdgeStyle;rounded=0;orthogonalLoop=1;jettySize=auto;html=1;entryX=0.5;entryY=0;entryDx=0;entryDy=0;" parent="1" source="LedfWho_zEuQjJXu2kJp-29" target="LedfWho_zEuQjJXu2kJp-31" edge="1">
          <mxGeometry relative="1" as="geometry" />
        </mxCell>
        <mxCell id="LedfWho_zEuQjJXu2kJp-39" value="彈性答覆" style="edgeLabel;html=1;align=center;verticalAlign=middle;resizable=0;points=[];" parent="LedfWho_zEuQjJXu2kJp-36" vertex="1" connectable="0">
          <mxGeometry x="-0.2955" y="1" relative="1" as="geometry">
            <mxPoint x="-1" as="offset" />
          </mxGeometry>
        </mxCell>
        <mxCell id="LedfWho_zEuQjJXu2kJp-43" style="edgeStyle=orthogonalEdgeStyle;rounded=0;orthogonalLoop=1;jettySize=auto;html=1;entryX=0.5;entryY=0;entryDx=0;entryDy=0;" parent="1" source="LedfWho_zEuQjJXu2kJp-29" target="LedfWho_zEuQjJXu2kJp-42" edge="1">
          <mxGeometry relative="1" as="geometry" />
        </mxCell>
        <mxCell id="LedfWho_zEuQjJXu2kJp-44" value="指定操作" style="edgeLabel;html=1;align=center;verticalAlign=middle;resizable=0;points=[];" parent="LedfWho_zEuQjJXu2kJp-43" vertex="1" connectable="0">
          <mxGeometry x="-0.7701" relative="1" as="geometry">
            <mxPoint x="14" as="offset" />
          </mxGeometry>
        </mxCell>
        <mxCell id="glDcicXGkT-XxDOjrgha-2" style="edgeStyle=orthogonalEdgeStyle;rounded=0;orthogonalLoop=1;jettySize=auto;html=1;entryX=0.5;entryY=0;entryDx=0;entryDy=0;" edge="1" parent="1" source="LedfWho_zEuQjJXu2kJp-29" target="glDcicXGkT-XxDOjrgha-1">
          <mxGeometry relative="1" as="geometry" />
        </mxCell>
        <mxCell id="glDcicXGkT-XxDOjrgha-3" value="固定答覆" style="edgeLabel;html=1;align=center;verticalAlign=middle;resizable=0;points=[];" vertex="1" connectable="0" parent="glDcicXGkT-XxDOjrgha-2">
          <mxGeometry x="-0.5449" y="1" relative="1" as="geometry">
            <mxPoint as="offset" />
          </mxGeometry>
        </mxCell>
        <mxCell id="LedfWho_zEuQjJXu2kJp-29" value="快取類型" style="rhombus;whiteSpace=wrap;html=1;" parent="1" vertex="1">
          <mxGeometry x="600" y="240" width="80" height="40" as="geometry" />
        </mxCell>
        <mxCell id="LedfWho_zEuQjJXu2kJp-48" style="edgeStyle=orthogonalEdgeStyle;rounded=0;orthogonalLoop=1;jettySize=auto;html=1;" parent="1" source="LedfWho_zEuQjJXu2kJp-31" edge="1">
          <mxGeometry relative="1" as="geometry">
            <mxPoint x="640" y="420" as="targetPoint" />
          </mxGeometry>
        </mxCell>
        <mxCell id="LedfWho_zEuQjJXu2kJp-31" value="CAG" style="shape=process;whiteSpace=wrap;html=1;backgroundOutline=1;" parent="1" vertex="1">
          <mxGeometry x="600" y="320" width="80" height="40" as="geometry" />
        </mxCell>
        <mxCell id="LedfWho_zEuQjJXu2kJp-47" style="edgeStyle=orthogonalEdgeStyle;rounded=0;orthogonalLoop=1;jettySize=auto;html=1;entryX=1;entryY=0.5;entryDx=0;entryDy=0;" parent="1" source="LedfWho_zEuQjJXu2kJp-42" target="LedfWho_zEuQjJXu2kJp-15" edge="1">
          <mxGeometry relative="1" as="geometry">
            <mxPoint x="640" y="420" as="targetPoint" />
            <Array as="points">
              <mxPoint x="760" y="420" />
            </Array>
          </mxGeometry>
        </mxCell>
        <mxCell id="LedfWho_zEuQjJXu2kJp-42" value="子系統" style="shape=process;whiteSpace=wrap;html=1;backgroundOutline=1;" parent="1" vertex="1">
          <mxGeometry x="720" y="320" width="80" height="40" as="geometry" />
        </mxCell>
        <mxCell id="glDcicXGkT-XxDOjrgha-4" style="edgeStyle=orthogonalEdgeStyle;rounded=0;orthogonalLoop=1;jettySize=auto;html=1;" edge="1" parent="1" source="glDcicXGkT-XxDOjrgha-1">
          <mxGeometry relative="1" as="geometry">
            <mxPoint x="520" y="420" as="targetPoint" />
          </mxGeometry>
        </mxCell>
        <mxCell id="glDcicXGkT-XxDOjrgha-1" value="Cache" style="shape=process;whiteSpace=wrap;html=1;backgroundOutline=1;" vertex="1" parent="1">
          <mxGeometry x="480" y="320" width="80" height="40" as="geometry" />
        </mxCell>
      </root>
    </mxGraphModel>
  </diagram>
</mxfile>
